{
  "source": "C:\\Users\\Peter\\Desktop\\stuff\\MIUN\\quantitative_research\\video_compression\\videos\\HEVC_CLASS_B\\BQTerrace_1920x1080_60.y4m",
  "output": "C:\\Users\\Peter\\Desktop\\stuff\\MIUN\\quantitative_research\\video_compression\\compressed_videos\\HEVC_CLASS_B\\h264\\2\\BQTerrace_1920x1080_60_h264.mp4",
  "codec": "h264",
  "ok": "Input #0, yuv4mpegpipe, from 'C:\\Users\\Peter\\Desktop\\stuff\\MIUN\\quantitative_research\\video_compression\\videos\\HEVC_CLASS_B\\BQTerrace_1920x1080_60.y4m':\n  Duration: 00:00:10.00, start: 0.000000, bitrate: 1492994 kb/s\n  Stream #0:0: Video: rawvideo (I420 / 0x30323449), yuv420p(progressive), 1920x1080, 60 fps, 60 tbr, 60 tbn\n[out#0/mp4 @ 000001ff500a9880] Codec AVOption b:a (set bitrate (in bits/s)) has not been used for any stream. The most likely reason is either wrong type (e.g. a video option with no video streams) or that it is a private option of some decoder which was not actually used for any stream.\nStream mapping:\n  Stream #0:0 -> #0:0 (rawvideo (native) -> h264 (libx264))\nPress [q] to stop, [?] for help\n[libx264 @ 000001ff500ac8c0] using cpu capabilities: MMX2 SSE2Fast SSSE3 SSE4.2 AVX FMA3 BMI2 AVX2\n[libx264 @ 000001ff500ac8c0] profile High, level 5.0, 4:2:0, 8-bit\n[libx264 @ 000001ff500ac8c0] 264 - core 165 r3222 b35605a - H.264/MPEG-4 AVC codec - Copyleft 2003-2025 - http://www.videolan.org/x264.html - options: cabac=1 ref=5 deblock=1:0:0 analyse=0x3:0x113 me=hex subme=8 psy=1 psy_rd=1.00:0.00 mixed_ref=1 me_range=16 chroma_me=1 trellis=2 8x8dct=1 cqm=0 deadzone=21,11 fast_pskip=1 chroma_qp_offset=-2 threads=18 lookahead_threads=3 sliced_threads=0 nr=0 decimate=1 interlaced=0 bluray_compat=0 constrained_intra=0 bframes=3 b_pyramid=2 b_adapt=1 b_bias=0 direct=3 weightb=1 open_gop=0 weightp=2 keyint=250 keyint_min=25 scenecut=40 intra_refresh=0 rc_lookahead=50 rc=cbr mbtree=1 bitrate=2000 ratetol=1.0 qcomp=0.60 qpmin=0 qpmax=69 qpstep=4 vbv_maxrate=2000 vbv_bufsize=2000 nal_hrd=none filler=0 ip_ratio=1.40 aq=1:1.00\nOutput #0, mp4, to 'C:\\Users\\Peter\\Desktop\\stuff\\MIUN\\quantitative_research\\video_compression\\compressed_videos\\HEVC_CLASS_B\\h264\\2\\BQTerrace_1920x1080_60_h264.mp4':\n  Metadata:\n    encoder         : Lavf62.3.100\n  Stream #0:0: Video: h264 (avc1 / 0x31637661), yuv420p(tv, progressive), 1920x1080, q=2-31, 2000 kb/s, 60 fps, 15360 tbn\n    Metadata:\n      encoder         : Lavc62.11.100 libx264\n    Side data:\n      cpb: bitrate max/min/avg: 2000000/0/2000000 buffer size: 2000000 vbv_delay: N/A\nframe=    0 fps=0.0 q=0.0 size=       0KiB time=N/A bitrate=N/A speed=N/A elapsed=0:00:00.53    \nframe=    0 fps=0.0 q=0.0 size=       0KiB time=N/A bitrate=N/A speed=N/A elapsed=0:00:01.29    \nframe=    0 fps=0.0 q=0.0 size=       0KiB time=N/A bitrate=N/A speed=N/A elapsed=0:00:02.03    \nframe=   20 fps=7.2 q=43.0 size=       0KiB time=00:00:00.16 bitrate=   2.3kbits/s speed=0.0603x elapsed=0:00:02.76    \nframe=   40 fps= 12 q=43.0 size=       0KiB time=00:00:00.56 bitrate=   0.7kbits/s speed=0.163x elapsed=0:00:03.46    \nframe=   68 fps= 17 q=42.0 size=       0KiB time=00:00:00.96 bitrate=   0.4kbits/s speed=0.24x elapsed=0:00:04.03    \nframe=   92 fps= 19 q=41.0 size=     256KiB time=00:00:01.43 bitrate=1463.4kbits/s speed=0.301x elapsed=0:00:04.76    \nframe=  104 fps= 19 q=41.0 size=     256KiB time=00:00:01.58 bitrate=1324.8kbits/s speed=0.29x elapsed=0:00:05.46    \nframe=  128 fps= 21 q=41.0 size=     256KiB time=00:00:01.93 bitrate=1084.9kbits/s speed=0.313x elapsed=0:00:06.16    \nframe=  148 fps= 22 q=41.0 size=     256KiB time=00:00:02.36 bitrate= 886.3kbits/s speed=0.345x elapsed=0:00:06.86    \nframe=  173 fps= 23 q=41.0 size=     512KiB time=00:00:02.76 bitrate=1516.2kbits/s speed=0.367x elapsed=0:00:07.52    \nframe=  192 fps= 23 q=42.0 size=     512KiB time=00:00:03.06 bitrate=1367.8kbits/s speed=0.372x elapsed=0:00:08.23    \nframe=  208 fps= 23 q=42.0 size=     512KiB time=00:00:03.43 bitrate=1221.8kbits/s speed=0.387x elapsed=0:00:08.86    \nframe=  224 fps= 24 q=42.0 size=     512KiB time=00:00:03.60 bitrate=1165.2kbits/s speed=0.383x elapsed=0:00:09.39    \nframe=  233 fps= 23 q=42.0 size=     512KiB time=00:00:03.85 bitrate=1089.5kbits/s speed=0.381x elapsed=0:00:10.10    \nframe=  258 fps= 24 q=42.0 size=     768KiB time=00:00:04.13 bitrate=1522.2kbits/s speed=0.383x elapsed=0:00:10.79    \nframe=  280 fps= 24 q=41.0 size=     768KiB time=00:00:04.61 bitrate=1362.9kbits/s speed=0.401x elapsed=0:00:11.50    \nframe=  300 fps= 25 q=42.0 size=     768KiB time=00:00:04.93 bitrate=1275.4kbits/s speed=0.408x elapsed=0:00:12.09    \nframe=  323 fps= 25 q=42.0 size=     768KiB time=00:00:05.30 bitrate=1187.1kbits/s speed=0.415x elapsed=0:00:12.77    \nframe=  354 fps= 26 q=42.0 size=    1024KiB time=00:00:05.73 bitrate=1463.2kbits/s speed=0.424x elapsed=0:00:13.51    \nframe=  382 fps= 27 q=42.0 size=    1024KiB time=00:00:06.26 bitrate=1338.7kbits/s speed=0.437x elapsed=0:00:14.33    \nframe=  396 fps= 26 q=42.0 size=    1024KiB time=00:00:06.56 bitrate=1277.5kbits/s speed=0.438x elapsed=0:00:15.00    \nframe=  420 fps= 27 q=42.0 size=    1280KiB time=00:00:06.91 bitrate=1516.1kbits/s speed=0.44x elapsed=0:00:15.70    \nframe=  443 fps= 27 q=43.0 size=    1280KiB time=00:00:07.33 bitrate=1429.9kbits/s speed=0.447x elapsed=0:00:16.40    \nframe=  464 fps= 27 q=42.0 size=    1280KiB time=00:00:07.70 bitrate=1361.8kbits/s speed=0.451x elapsed=0:00:17.08    \nframe=  483 fps= 27 q=42.0 size=    1280KiB time=00:00:08.01 bitrate=1308.0kbits/s speed=0.452x elapsed=0:00:17.73    \nframe=  500 fps= 27 q=43.0 size=    1280KiB time=00:00:08.16 bitrate=1284.0kbits/s speed=0.446x elapsed=0:00:18.32    \nframe=  520 fps= 27 q=42.0 size=    1536KiB time=00:00:08.63 bitrate=1457.5kbits/s speed=0.454x elapsed=0:00:19.01    \nframe=  546 fps= 28 q=41.0 size=    1536KiB time=00:00:09.05 bitrate=1390.4kbits/s speed=0.461x elapsed=0:00:19.61    \nframe=  573 fps= 28 q=40.0 size=    1536KiB time=00:00:09.40 bitrate=1338.6kbits/s speed=0.465x elapsed=0:00:20.19    \nframe=  600 fps= 29 q=-1.0 size=    1792KiB time=00:00:09.85 bitrate=1490.4kbits/s speed=0.474x elapsed=0:00:20.78    \n[mp4 @ 000001ff500a9980] Starting second pass: moving the moov atom to the beginning of the file\n[out#0/mp4 @ 000001ff500a9880] video:1831KiB audio:0KiB subtitle:0KiB other streams:0KiB global headers:0KiB muxing overhead: 0.429770%\nframe=  600 fps= 29 q=-1.0 Lsize=    1839KiB time=00:00:09.96 bitrate=1511.6kbits/s speed=0.477x elapsed=0:00:20.88    \n[libx264 @ 000001ff500ac8c0] frame I:3     Avg QP:38.91  size: 53331\n[libx264 @ 000001ff500ac8c0] frame P:151   Avg QP:39.32  size:  5873\n[libx264 @ 000001ff500ac8c0] frame B:446   Avg QP:44.83  size:  1855\n[libx264 @ 000001ff500ac8c0] consecutive B-frames:  0.8%  0.0%  0.5% 98.7%\n[libx264 @ 000001ff500ac8c0] mb I  I16..4: 32.7% 56.0% 11.3%\n[libx264 @ 000001ff500ac8c0] mb P  I16..4:  0.2%  0.3%  0.0%  P16..4: 18.8%  2.2%  2.3%  0.0%  0.0%    skip:76.2%\n[libx264 @ 000001ff500ac8c0] mb B  I16..4:  0.0%  0.0%  0.0%  B16..8: 28.4%  0.2%  0.0%  direct: 0.0%  skip:71.3%  L0:38.5% L1:61.4% BI: 0.1%\n[libx264 @ 000001ff500ac8c0] 8x8 transform intra:55.8% inter:68.7%\n[libx264 @ 000001ff500ac8c0] direct mvs  spatial:97.8% temporal:2.2%\n[libx264 @ 000001ff500ac8c0] coded y,uvDC,uvAC intra: 41.6% 26.2% 5.9% inter: 0.9% 0.5% 0.0%\n[libx264 @ 000001ff500ac8c0] i16 v,h,dc,p: 35% 33%  4% 28%\n[libx264 @ 000001ff500ac8c0] i8 v,h,dc,ddl,ddr,vr,hd,vl,hu: 12%  5% 17%  8%  9%  7% 10%  7% 25%\n[libx264 @ 000001ff500ac8c0] i4 v,h,dc,ddl,ddr,vr,hd,vl,hu: 11%  6% 12%  8%  8%  8% 10% 10% 28%\n[libx264 @ 000001ff500ac8c0] i8c dc,h,v,p: 44% 48%  7%  2%\n[libx264 @ 000001ff500ac8c0] Weighted P-Frames: Y:9.9% UV:4.6%\n[libx264 @ 000001ff500ac8c0] ref P L0: 58.0% 20.6% 13.7%  3.6%  3.7%  0.4%\n[libx264 @ 000001ff500ac8c0] ref B L0: 90.0%  7.2%  2.2%  0.6%\n[libx264 @ 000001ff500ac8c0] ref B L1: 97.0%  3.0%\n[libx264 @ 000001ff500ac8c0] kb/s:1499.54\n",
  "seconds": 21.280512809753418,
  "probe_out": {}
}